<?xml version="1.0" encoding="UTF-8"?>
<svg width="537px" height="134px" viewBox="0 0 537 134" version="1.1" xmlns="http://www.w3.org/2000/svg" xmlns:xlink="http://www.w3.org/1999/xlink">
    <!-- Generator: Sketch 49 (51002) - http://www.bohemiancoding.com/sketch -->
    <title>logo</title>
    <desc>Created with Sketch.</desc>
    <defs></defs>
    <g id="logo" stroke="none" stroke-width="1" fill="none" fill-rule="evenodd">
        <text id="SCHOOLITS" font-family="Roboto-Medium, Roboto" font-size="72" font-weight="400" line-spacing="104" fill="#000000">
            <tspan x="133.271484" y="89">SCHOOLITS</tspan>
        </text>
        <g id="brain" transform="translate(14.000000, 14.000000)" fill="#000000" fill-rule="nonzero">
            <path d="M93.8463977,45.7186499 C93.3084493,41.3871742 91.5081081,37.9377329 90.7521434,36.6442584 C91.2990227,27.6321904 89.5217965,20.846335 85.4677455,16.4683808 C82.3072983,13.055911 78.6152067,12.0904266 76.7402672,11.8178938 C73.8808401,5.74083493 69.0198664,4.56514112 66.0653526,4.85087802 C60.5335193,-0.328829627 55.4167049,-0.451891918 52.0445456,0.393699185 C49.8207802,0.952497054 48.0798025,1.99984693 46.9997028,2.78945262 C45.9201285,1.99879061 44.1781001,0.952497054 41.95486,0.393699185 C38.5827007,-0.453476411 33.4658863,-0.329885956 27.9340531,4.85087802 C24.9763872,4.56408479 20.1175149,5.74083493 17.2591384,11.8178938 C15.3841989,12.0898984 11.6921074,13.0553828 8.53166018,16.4683808 C4.47655849,20.846335 2.70038297,27.6321904 3.24726221,36.6442584 C2.49129754,37.9366766 0.692007048,41.3871742 0.153007912,45.7186499 C-0.455861483,50.6268811 0.473990828,57.5484747 8.10718522,63.1644461 C7.22251218,68.4143996 8.0599046,77.4518196 16.3996817,81.8957943 C16.0534824,83.8056366 15.8239087,87.1182833 17.5197072,89.9497723 C18.8530208,92.1770413 21.0557727,93.6421692 24.074378,94.3118816 C25.5983901,96.6764733 30.851793,104 37.4075145,104 C37.4490164,104 37.4915689,104 37.5330708,103.998944 C41.0475973,103.94824 44.2232794,101.859878 46.9991775,97.7819213 C49.7761262,101.858822 52.9518083,103.94824 56.4652841,103.998944 C63.0693369,104.096126 68.3905087,96.6912619 69.9245023,94.3118816 C72.9431076,93.6421692 75.1463848,92.1775695 76.4791731,89.9497723 C78.1754969,87.1182833 77.9448725,83.8051084 77.5991986,81.8957943 C85.9400264,77.4518196 86.7774188,68.4143996 85.8927458,63.1644461 C93.5264655,57.5484747 94.4568431,50.6274093 93.8463977,45.7186499 Z M82.9019835,60.8685158 C82.2715751,61.2910472 81.9731819,62.0663925 82.157051,62.8058225 C82.2789299,63.295959 85.0206809,74.8448004 74.8122684,79.2428249 C73.9543877,79.6125399 73.5220326,80.5806651 73.8172739,81.4700939 C73.829882,81.5086499 75.03869,85.3679467 73.4064578,88.0916902 C72.5217847,89.5700222 70.8769443,90.5201898 68.5207931,90.9147286 C67.9954528,91.0024038 67.5363054,91.3214151 67.2673312,91.7830307 C65.8651979,94.1888193 61.2290699,100.39475 56.5897898,100.39475 C56.5640481,100.39475 56.5367304,100.39475 56.5099381,100.39475 C53.7198558,100.351441 51.0605833,98.0364965 48.6067188,93.5143534 C48.2920399,92.9354853 47.620655,92.5752772 46.9639797,92.5752772 C46.3073043,92.5752772 45.7042137,92.9349571 45.3895348,93.5143534 C42.936721,98.0364965 40.2774485,100.351441 37.4863155,100.39475 C32.841782,100.46975 28.1394611,94.2030797 26.7289224,91.7830307 C26.4599482,91.3214151 25.9997501,91.0024038 25.4754605,90.9147286 C23.1266641,90.520718 21.485501,89.5753038 20.5987266,88.1059506 C18.9465314,85.3674185 20.1689983,81.5033682 20.1800304,81.4695657 C20.474221,80.580137 20.0429166,79.6120117 19.1850359,79.2422967 C9.03020811,74.8669833 11.7225771,63.2922619 11.841304,62.8052944 C12.0251731,62.0663925 11.7267798,61.2910472 11.0963715,60.8679876 C-2.28089365,51.9018698 6.20125066,38.6549801 6.5668875,38.098823 C6.78753042,37.7660795 6.8915478,37.3688999 6.86370476,36.9701358 C6.27900102,28.7503143 7.70582524,22.6991355 11.1037262,18.982443 C14.3708175,15.4094113 18.3250538,15.3175107 18.4800292,15.315398 C19.2134043,15.315398 19.872181,14.8664583 20.1448326,14.1824855 C22.1516325,9.1401006 25.3761712,8.41968445 27.0530574,8.41968445 C27.5925819,8.41968445 27.9729282,8.49468378 28.0984846,8.52426099 C28.7099807,8.67742864 29.3556239,8.49838093 29.8011124,8.04996941 C33.4501261,4.38292442 37.2005304,2.97431014 40.9488334,3.85951356 C43.8171913,4.53714841 45.6847761,6.35350556 45.6973842,6.36618151 C46.033602,6.70420668 46.4901227,6.89434584 46.9650304,6.89434584 L47.0333246,6.89434584 C47.5087576,6.89434584 47.9647529,6.70420668 48.3009707,6.36618151 C48.3188323,6.34822392 50.1228508,4.59313383 52.9139838,3.89173159 C56.7064153,2.93892312 60.5035749,4.3359178 64.1972425,8.04996941 C64.6327496,8.48887398 65.2783928,8.66580903 65.8830595,8.5284863 C66.4183813,8.40489585 71.2005539,7.5154671 73.8535224,14.1830137 C74.1224966,14.859064 74.782324,15.3069474 75.5067682,15.3159262 C75.6733011,15.318567 79.6275375,15.4094113 82.8946287,18.9829712 C86.2920044,22.6996636 87.7183033,28.7513706 87.1346502,36.970664 C87.1068072,37.3688999 87.2108245,37.7666077 87.4314675,38.0993512 C87.4545824,38.1336819 89.7166977,41.588933 90.2861666,46.1670614 C91.0284724,52.1400719 88.5441382,57.0868591 82.9019835,60.8685158 Z" id="Shape"></path>
            <path d="M76.9053295,12.2015028 C76.5834418,11.2806765 75.5390594,10.7844906 74.5771708,11.0902317 C63.1320979,14.7323597 63,23.8629006 63,24.2494521 C63,25.2150586 63.8163113,25.9938234 64.8272649,26 C64.8321175,26 64.8364309,26 64.8402051,26 C65.8457669,26 66.6669308,25.2217499 66.6804102,24.2612905 C66.6852628,23.9756233 66.8836793,17.2415985 75.7407109,14.4235303 C76.7052954,14.1167597 77.2261387,13.1223291 76.9053295,12.2015028 Z" id="Shape"></path>
            <path d="M84.6391608,60.449579 C84.0488035,59.7016676 82.9440141,59.5563791 82.168234,60.1275477 C79.2954717,62.2434679 76.6974863,62.9973705 74.4517526,62.3717811 C70.450442,61.2579024 68.43455,56.1633179 68.4154395,56.1113935 C68.0771333,55.2301762 67.0622146,54.7793324 66.1526614,55.1068557 C65.2394928,55.4323819 64.7720621,56.4129546 65.1098518,57.2956697 C65.2147009,57.57027 67.743992,64.0358589 73.4549113,65.6410225 C74.3066167,65.8806737 75.17485,66 76.0580617,66 C78.6865204,66 81.4508182,64.9425392 84.3060196,62.8381024 C85.0802502,62.2679323 85.2290017,61.1974904 84.6391608,60.449579 Z" id="Shape"></path>
            <path d="M55.1305216,63.5254725 C54.4152962,62.8248425 53.2524504,62.8248425 52.5372251,63.5254725 C51.820925,64.2261024 51.820925,65.3619324 52.5372251,66.0620367 C58.4927794,71.8873043 57.2573901,77.5154705 57.1939817,77.7819517 C56.9553942,78.7401275 57.5524005,79.706713 58.5309319,79.9463884 C58.6792431,79.9821295 58.8291664,80 58.9764029,80 C59.7980254,80 60.5465671,79.4554744 60.7545252,78.6402628 C60.8356665,78.3264773 62.6342084,70.8650048 55.1305216,63.5254725 Z" id="Shape"></path>
            <path d="M82.8920108,45.6047797 C82.5555118,44.6652352 81.5297663,44.178989 80.6020353,44.5175014 C80.2398533,44.6487613 71.7094454,47.6730529 67.1787637,41.5591054 C64.825367,38.3838916 63.8142974,35.6646331 63.0013535,33.4799796 C62.0039117,30.800046 61.0630771,28.2678461 57.935523,28.0063891 C56.9595709,27.9229567 56.0863507,28.6664085 56.006157,29.6649402 C55.924915,30.6624091 56.6571411,31.538715 57.6420036,31.6210845 C58.3910022,31.6827288 58.6724664,32.1232732 59.6531357,34.7590993 C60.4996247,37.0330307 61.6579781,40.1471317 64.3179977,43.7368505 C67.4355932,47.9435439 71.7849218,49 75.3711001,49 C78.8430154,49 81.598953,48.0089081 81.8259064,47.9260071 C82.7525891,47.5832435 83.2285098,46.5448555 82.8920108,45.6047797 Z" id="Shape"></path>
            <path d="M46.5,3 C45.6719895,3 45,3.80852092 45,4.80476253 L45,94.1952375 C45,95.1914791 45.6719895,96 46.5,96 C47.3280105,96 48,95.1925367 48,94.1957663 L48,4.80476253 C48,3.80852092 47.3280105,3 46.5,3 Z" id="Shape"></path>
            <path d="M59.9990355,18.8361957 C59.9840482,17.8081889 59.1547515,16.9738883 58.0767767,17.0006252 C57.0298868,17.0153578 56.1944841,17.8622084 56.2094714,18.8902151 C56.2111367,19.0064388 56.3143824,30.6189868 50.4071698,37.9836404 C49.7593858,38.7917498 49.8992672,39.9627172 50.7219029,40.5994921 C51.069386,40.8695894 51.4823691,41 51.8936869,41 C52.4537675,41 53.0088523,40.7571852 53.3818693,40.2906535 C60.113383,31.89963 60.0062516,19.366023 59.9990355,18.8361957 Z" id="Shape"></path>
            <path d="M64.1592989,74 C56.0470584,74 52.252432,85.10488 52.0949965,85.578323 C51.7736556,86.541925 52.2939475,87.5815584 53.2574311,87.9045565 C53.4504513,87.9698032 53.6477848,88 53.840805,88 C54.6101901,88 55.3278155,87.5141548 55.5866135,86.7435967 C56.4341771,84.2227015 59.6270981,77.6807765 64.159838,77.6807765 C65.1756204,77.6807765 66,76.8562955 66,75.8403882 C66,74.824481 65.1750812,74 64.1592989,74 Z" id="Shape"></path>
            <path d="M65.2669581,4.37861959 C64.4629396,3.74766343 63.3227144,3.92320945 62.7227642,4.77177539 L58.3595382,10.9428071 C57.7601208,11.7896905 57.9274249,12.9893484 58.7330419,13.6208655 C59.0585921,13.8771739 59.4384896,14 59.8167886,14 C60.3725151,14 60.9207822,13.7341571 61.2772358,13.2277097 L65.6404618,7.05667797 C66.2398792,6.20979459 66.0725751,5.01069745 65.2669581,4.37861959 Z" id="Shape"></path>
            <path d="M29.5,16 C25.3646451,16 22,19.3646451 22,23.5 C22,27.6353549 25.3646451,31 29.5,31 C33.6353549,31 37,27.6353549 37,23.5 C37,19.3646451 33.6353549,16 29.5,16 Z M29.5,27.2502747 C27.4317732,27.2502747 25.7497253,25.5682268 25.7497253,23.5 C25.7497253,21.4317732 27.4317732,19.7497253 29.5,19.7497253 C31.5682268,19.7497253 33.2502747,21.4317732 33.2502747,23.5 C33.2497253,25.5682268 31.5676774,27.2502747 29.5,27.2502747 Z" id="Shape"></path>
            <path d="M16.5,40 C12.3646451,40 9,43.3646451 9,47.5 C9,51.6353549 12.3646451,55 16.5,55 C20.6353549,55 24,51.6353549 24,47.5 C24.0005493,43.3646451 20.6353549,40 16.5,40 Z M16.5,51.2502747 C14.4317732,51.2502747 12.7497253,49.5682268 12.7497253,47.5 C12.7497253,45.4317732 14.4317732,43.7497253 16.5,43.7497253 C18.5682268,43.7497253 20.2502747,45.4317732 20.2502747,47.5 C20.2502747,49.5682268 18.5682268,51.2502747 16.5,51.2502747 Z" id="Shape"></path>
            <path d="M34.5,56 C30.3646451,56 27,59.3646451 27,63.5 C27,67.6353549 30.3646451,71 34.5,71 C38.6353549,71 42,67.6353549 42,63.5 C42,59.3646451 38.6353549,56 34.5,56 Z M34.5,67.2502747 C32.4317732,67.2502747 30.7497253,65.5682268 30.7497253,63.5 C30.7497253,61.4317732 32.4317732,59.7497253 34.5,59.7497253 C36.5682268,59.7497253 38.2502747,61.4317732 38.2502747,63.5 C38.2502747,65.5682268 36.5676774,67.2502747 34.5,67.2502747 Z" id="Shape"></path>
            <path d="M34.5,76 C30.3646451,76 27,79.3646451 27,83.5 C27,87.6353549 30.3646451,91 34.5,91 C38.6353549,91 42,87.6353549 42,83.5 C42,79.3646451 38.6353549,76 34.5,76 Z M34.5,87.2502747 C32.4317732,87.2502747 30.7497253,85.5682268 30.7497253,83.5 C30.7497253,81.4317732 32.4317732,79.7497253 34.5,79.7497253 C36.5682268,79.7497253 38.2502747,81.4317732 38.2502747,83.5 C38.2497253,85.5682268 36.5676774,87.2502747 34.5,87.2502747 Z" id="Shape"></path>
            <path d="M28.5,27 C27.6719895,27 27,27.8212603 27,28.8331991 L27,47.1668009 C27,48.1787397 27.6719895,49 28.5,49 C29.3288895,49 30,48.179814 30,47.1668009 L30,28.8331991 C30,27.8212603 29.3280105,27 28.5,27 Z" id="Shape"></path>
            <path d="M33.2228586,45 L20.777662,45 C19.7963801,45 19,45.6719895 19,46.5 C19,47.3280105 19.7963801,48 20.777662,48 L33.2223377,48 C34.2046614,48 34.9999997,47.3280105 34.9999997,46.5 C35.0005206,45.6719895 34.2041405,45 33.2228586,45 Z" id="Shape"></path>
            <path d="M33.5,45 C32.6719895,45 32,45.8399253 32,46.8748627 L32,58.1251373 C32,59.1600747 32.6719895,60 33.5,60 C34.3288895,60 35,59.1611734 35,58.1251373 L35,46.8748627 C35,45.8399253 34.3280105,45 33.5,45 Z" id="Shape"></path>
            <path d="M33.5,67 C32.6719895,67 32,67.8319173 32,68.8569874 L32,78.1430126 C32,79.1680827 32.6719895,80 33.5,80 C34.3288895,80 35,79.1691709 35,78.1430126 L35,68.8569874 C35,67.8319173 34.3280105,67 33.5,67 Z" id="Shape"></path>
        </g>
    </g>
</svg>